# xmcd
#
# Track frame offsets:
# 150
# 15546
# 32834
# 50271
# 66552
# 82992
# 97653
# 119167
# 140646
# 161240
# 180025
#
# Disc length: 2547 seconds
#
# Revision: 1
# Processed by: cddbd v1.5.1PL0 Copyright (c) Steve Scherf et al.
# Submitted via: CedeCatalogueitor 2.6.0.6 http://personales.ya.com/cdcatalogueitor
#
DISCID=8c09f10b
DTITLE=Varios - En Tu Fiesta Me Colé - Homenaje A Mecano CD 2
DYEAR=2005
DGENRE=
TTITLE0=Maquillaje
TTITLE1=Perdido En Mi Habitación
TTITLE2=Un Año Más
TTITLE3=Me Cuesta Tanto Olvidarte
TTITLE4=Máquina De Vapor
TTITLE5=Barco A Venus
TTITLE6=No Me Enseñen La Lección
TTITLE7=El 7 De Septiembre
TTITLE8=Me Colé En Una Fiesta
TTITLE9=Cenando En París
TTITLE10=Quédate En Madrid
EXTD=
EXTT0=
EXTT1=
EXTT2=
EXTT3=
EXTT4=
EXTT5=
EXTT6=
EXTT7=
EXTT8=
EXTT9=
EXTT10=
PLAYORDER=
